<svg width="3986" height="3986" viewBox="0 0 3986 3986" fill="none" xmlns="http://www.w3.org/2000/svg">
<path d="M3402.26 583.737C3217.2 398.669 2997.49 251.866 2755.69 151.708C2513.89 51.5506 2254.73 6.55211e-05 1993 0C1731.28 -6.5521e-05 1472.11 51.5503 1230.31 151.708C988.51 251.866 768.804 398.669 583.736 583.736C398.669 768.803 251.866 988.51 151.708 1230.31C51.5505 1472.11 2.28807e-05 1731.28 0 1993C-2.28807e-05 2254.72 51.5504 2513.89 151.708 2755.69C251.866 2997.49 398.669 3217.2 583.736 3402.26L1993 1993L3402.26 583.737Z" fill="white"/>
<path d="M583.736 3402.26C768.803 3587.33 988.509 3734.13 1230.31 3834.29C1472.11 3934.45 1731.27 3986 1993 3986C2254.72 3986 2513.89 3934.45 2755.69 3834.29C2997.49 3734.13 3217.2 3587.33 3402.26 3402.26C3587.33 3217.2 3734.13 2997.49 3834.29 2755.69C3934.45 2513.89 3986 2254.72 3986 1993C3986 1731.28 3934.45 1472.11 3834.29 1230.31C3734.13 988.51 3587.33 768.803 3402.26 583.736L1993 1993L583.736 3402.26Z" fill="black"/>
</svg>
